<?xml version="1.0" standalone="no"?>
<!DOCTYPE svg PUBLIC "-//W3C//DTD SVG 20010904//EN"
 "http://www.w3.org/TR/2001/REC-SVG-20010904/DTD/svg10.dtd">
<svg version="1.0" xmlns="http://www.w3.org/2000/svg"
 width="512.000000pt" height="512.000000pt" viewBox="0 0 512.000000 512.000000"
 preserveAspectRatio="xMidYMid meet">
<metadata>
Created by potrace 1.14, written by Peter Selinger 2001-2017
</metadata>
<g transform="translate(0.000000,512.000000) scale(0.100000,-0.100000)"
fill="#000000" stroke="none">
<path d="M543 4475 c-85 -25 -143 -83 -172 -170 -19 -58 -20 -90 -16 -1240 1
-649 6 -1195 10 -1212 4 -18 11 -33 16 -33 5 0 9 -8 9 -17 0 -23 73 -88 129
-114 l45 -21 1993 0 1993 1 55 25 c68 31 119 85 145 154 19 51 20 80 20 1230
0 1035 -2 1182 -16 1222 -20 58 -48 98 -92 133 -77 60 43 56 -2107 55 -1531 0
-1979 -3 -2012 -13z m3817 -1365 l0 -1018 -1799 -1 -1798 0 0 1018 0 1019
1799 0 1798 0 0 -1018z"/>
<path d="M615 1388 c-49 -7 -87 -29 -152 -89 -21 -19 -94 -84 -163 -144 -69
-61 -130 -114 -136 -120 -6 -5 -39 -35 -73 -65 -83 -73 -91 -90 -91 -198 0
-74 3 -94 19 -113 l19 -24 2521 0 c2406 0 2521 1 2538 18 14 13 19 38 22 103
1 46 0 96 -3 110 -7 28 -51 74 -165 174 -41 36 -84 74 -96 85 -13 11 -46 40
-75 65 -28 25 -69 61 -89 80 -73 67 -106 92 -141 107 -30 13 -276 15 -1961 17
-1059 0 -1947 -2 -1974 -6z m2444 -372 c17 -25 37 -51 43 -58 29 -30 57 -77
50 -81 -4 -3 -262 -5 -574 -5 l-567 -1 50 67 c28 37 58 79 67 94 l17 28 442 0
442 0 30 -44z"/>
</g>
</svg>
